# Aspose.3D Wavefront OBJ Exporter
# Copyright 2004-2023 Aspose Pty Ltd.
# File created: 05/21/2023 10:18:27


#
# object Cylinder
#

v 0 -1.0000066359969677 -9.99999998608998368
v 0 1.00000337758332791 -10.00000031193297367
v 3.82683463394641872 -1.00000651198093848 -9.23879502812795828
v 3.82683463394641872 1.00000350159935713 -9.2387953539709482
v 7.07106813788414001 -1.00000615881337395 -7.07106797496255091
v 7.07106813788414001 1.00000385476692166 -7.07106830080554083
v 9.2387951910495758 -1.00000563026058619 -3.8268340984958424
v 9.2387951910495758 1.00000438331970942 -3.82683442433883328
v 10.00000014901161193 -1.00000500679007653 6.000353958932402E-07
v 10.00000014901161193 1.00000500679021908 2.741924053686435E-07
v 9.2387951910495758 -1.00000438331952734 3.82683554192592272
v 9.2387951910495758 1.00000563026076827 3.826835216082932
v 7.07106813788414001 -1.00000385476692166 7.07106830080554083
v 7.07106813788414001 1.00000615881337395 7.07106797496255091
v 3.82683500647544864 -1.00000350159935713 9.2387953539709482
v 3.82683500647544864 1.00000651198093848 9.23879502812795828
v 1.5099580252808664E-06 -1.00000337758332791 10.00000031193297367
v 1.5099580252808664E-06 1.0000066359969677 9.99999998608998368
v -3.82683239877223968 -1.00000350159911421 9.2387968440870676
v -3.82683239877223968 1.0000065119811814 9.23879651824407768
v -7.07106590270996094 -1.0000038547665575 7.07107053597971991
v -7.07106590270996094 1.00000615881373811 7.07107021013672998
v -9.2387951910495758 -1.00000438331946672 3.82683591445495264
v -9.2387951910495758 1.00000563026082889 3.82683558861196176
v -10.00000014901161193 -1.00000500679016712 4.3672684436377334E-08
v -10.00000014901161193 1.00000500679012849 -2.821703060882194E-07
v -9.23879444599151612 -1.00000563026088973 -3.82683596114099168
v -9.23879444599151612 1.00000438331940588 -3.82683628698398256
v -7.07106515765190125 -1.00000615881373811 -7.07107021013672998
v -7.07106515765190125 1.0000038547665575 -7.07107053597971991
v -3.82682979106903072 -1.00000651198130263 -9.23879726330213736
v -3.82682979106903072 1.00000350159899298 -9.23879758914512728
v 1.4666921011041723E-07 -1.00000633414348816 -8.14723654190475166
v 3.11781298369169236 -1.00000623310473768 -7.52706511417801408
v 5.76096661388874048 -1.00000594537074349 -5.76096645096716832
v 7.52706527709960936 -1.00000551474626675 -3.11781226197661044
v 8.14723670482635498 -1.00000500679008696 5.363037092984487E-07
v 7.52706527709960936 -1.00000449883384678 3.11781370540669078
v 5.76096661388874048 -1.00000406820955212 5.76096677681015824
v 3.11781316995620728 -1.00000378047555793 7.527065440021004
v 1.3768677753489555E-06 -1.00000367943680745 8.14723686774774158
v -3.11781074851751328 -1.00000378047543647 7.52706618507906368
v -5.76096475124359136 -1.0000040682092488 5.76096863945530752
v -7.52706527709960936 -1.00000449883378594 3.11781407793572062
v -8.14723670482635498 -1.00000500679016091 8.302186390672614E-08
v -7.52706453204154968 -1.00000551474650967 -3.11781375209272982
v -5.76096400618553168 -1.00000594537104681 -5.7609683136123176
v -3.11780869960784912 -1.0000062331049806 -7.52706660429413344
# 48 vertices

vn 0 -0.66570037839223904 -0.74617744567420608
vn 0 -1.6292067961387602E-07 -0.99999999999998672
vn 0.38267159461975096 -1.505152992242742E-07 -0.92385631799696656
vn 0.2855311632156372 -0.66570036913916832 -0.68938250424888336
vn 0.2855311632156372 -0.66570036913916832 -0.68938250424888336
vn 0.38267159461975096 -1.505152992242742E-07 -0.92385631799696656
vn 0.70708334445953368 -1.1519849907326574E-07 -0.7070833444595244
vn 0.52763450145721432 -0.66570034278705624 -0.52763439300086912
vn 0.52763450145721432 -0.66570034278705624 -0.52763439300086912
vn 0.70708334445953368 -1.1519849907326574E-07 -0.7070833444595244
vn 0.92385631799697872 -6.23451162917732E-08 -0.38267159461974592
vn 0.68938261270523072 -0.66570030334341592 -0.2855310547592952
vn 0.68938261270523072 -0.66570030334341592 -0.2855310547592952
vn 0.92385631799697872 -6.23451162917732E-08 -0.38267159461974592
vn 1 0 0
vn 0.74617755413055424 -0.66570025682448464 1.0845633824363432E-07
vn 0.74617755413055424 -0.66570025682448464 1.0845633824363432E-07
vn 1 0 0
vn 0.92385631799697872 6.23451162917732E-08 0.38267159461974592
vn 0.68938261270523072 -0.66570021030555336 0.28553127167197168
vn 0.68938261270523072 -0.66570021030555336 0.28553127167197168
vn 0.92385631799697872 6.23451162917732E-08 0.38267159461974592
vn 0.70708334445953368 1.1519849907326574E-07 0.7070833444595244
vn 0.52763450145721432 -0.66570017086191304 0.5276346099135456
vn 0.52763450145721432 -0.66570017086191304 0.5276346099135456
vn 0.70708334445953368 1.1519849907326574E-07 0.7070833444595244
vn 0.38267159461975096 1.505152992242742E-07 0.92385631799696656
vn 0.2855311632156372 -0.66570014450980088 0.68938272116156
vn 0.2855311632156372 -0.66570014450980088 0.68938272116156
vn 0.38267159461975096 1.505152992242742E-07 0.92385631799696656
vn 0 1.6292067961387602E-07 0.99999999999998672
vn 0 -0.66570013525673032 0.74617766258688256
vn 0 -0.66570013525673032 0.74617766258688256
vn 0 1.6292067961387602E-07 0.99999999999998672
vn -0.38267159461975096 1.505152992242742E-07 0.92385631799696656
vn -0.2855311632156372 -0.66570014450980088 0.68938272116156
vn -0.2855311632156372 -0.66570014450980088 0.68938272116156
vn -0.38267159461975096 1.505152992242742E-07 0.92385631799696656
vn -0.70708334445953368 1.1519849907326574E-07 0.7070833444595244
vn -0.52763450145721432 -0.66570017086191304 0.5276346099135456
vn -0.52763450145721432 -0.66570017086191304 0.5276346099135456
vn -0.70708334445953368 1.1519849907326574E-07 0.7070833444595244
vn -0.92385631799697872 6.23451162917732E-08 0.38267159461974592
vn -0.68938261270523072 -0.66570021030555336 0.28553127167197168
vn -0.68938261270523072 -0.66570021030555336 0.28553127167197168
vn -0.92385631799697872 6.23451162917732E-08 0.38267159461974592
vn -1 0 0
vn -0.74617755413055424 -0.66570025682448464 1.0845633824363432E-07
vn -0.74617755413055424 -0.66570025682448464 1.0845633824363432E-07
vn -1 0 0
vn -0.92385631799697872 -6.23451162917732E-08 -0.38267159461974592
vn -0.68938261270523072 -0.66570030334341592 -0.2855310547592952
vn -0.68938261270523072 -0.66570030334341592 -0.2855310547592952
vn -0.92385631799697872 -6.23451162917732E-08 -0.38267159461974592
vn -0.70708334445953368 -1.1519849907326574E-07 -0.7070833444595244
vn -0.52763450145721432 -0.66570034278705624 -0.52763439300086912
vn -0.52763450145721432 -0.66570034278705624 -0.52763439300086912
vn -0.70708334445953368 -1.1519849907326574E-07 -0.7070833444595244
vn -0.38267159461975096 -1.505152992242742E-07 -0.92385631799696656
vn -0.2855311632156372 -0.66570036913916832 -0.68938250424888336
vn -0.2855311632156372 -0.66570036913916832 -0.68938250424888336
vn -0.38267159461975096 -1.505152992242742E-07 -0.92385631799696656
vn 0 -1.6292067961387602E-07 -0.99999999999998672
vn 0 -0.66570037839223904 -0.74617744567420608
vn 0 -0.99999999999998672 1.6292067961387602E-07
vn 0 -0.99999999999998672 1.6292067961387602E-07
vn 0 -0.99999999999998672 1.6292067961387602E-07
vn 0 -0.99999999999998672 1.6292067961387602E-07
vn 2.864374515354484E-09 -0.99999999999998672 1.6292067961387602E-07
vn 2.864374515354484E-09 -0.99999999999998672 1.6292067961387602E-07
vn 2.864374515354484E-09 -0.99999999999998672 1.6292067961387602E-07
vn 2.864374515354484E-09 -0.99999999999998672 1.6292067961387602E-07
vn 2.864374515354484E-09 -0.99999999999998672 1.6292067961387602E-07
vn 2.864374515354484E-09 -0.99999999999998672 1.6292067961387602E-07
vn 2.864374515354484E-09 -0.99999999999998672 1.6292067961387602E-07
vn 2.864374515354484E-09 -0.99999999999998672 1.6292067961387602E-07
vn 2.864374515354484E-09 -0.99999999999998672 1.6292067961387602E-07
vn 2.864374515354484E-09 -0.99999999999998672 1.6292067961387602E-07
vn 2.864374515354484E-09 -0.99999999999998672 1.6292067961387602E-07
vn 2.864374515354484E-09 -0.99999999999998672 1.6292067961387602E-07
vn 2.864374515354484E-09 -0.99999999999998672 1.6292067961387602E-07
vn 2.864374515354484E-09 -0.99999999999998672 1.6292067961387602E-07
vn 2.864374515354484E-09 -0.99999999999998672 1.6292067961387602E-07
vn 2.864374515354484E-09 -0.99999999999998672 1.6292067961387602E-07
vn 0 -0.99999994039534208 1.62920670065958E-07
vn 0 -0.99999994039534208 1.62920670065958E-07
vn 0 -0.99999994039534208 1.62920670065958E-07
vn 0 -0.99999994039534208 1.62920670065958E-07
vn 0 -0.99999999999998672 1.6292067961387602E-07
vn 0 -0.99999999999998672 1.6292067961387602E-07
vn 0 -0.99999999999998672 1.6292067961387602E-07
vn 0 -0.99999999999998672 1.6292067961387602E-07
vn -4.523870344996794E-08 -0.99999999999998672 1.6292067961387602E-07
vn -4.523870344996794E-08 -0.99999999999998672 1.6292067961387602E-07
vn -4.523870344996794E-08 -0.99999999999998672 1.6292067961387602E-07
vn -4.523870344996794E-08 -0.99999999999998672 1.6292067961387602E-07
vn 0 -0.99999999999998672 1.6292067961387602E-07
vn 0 -0.99999999999998672 1.6292067961387602E-07
vn 0 -0.99999999999998672 1.6292067961387602E-07
vn 0 -0.99999999999998672 1.6292067961387602E-07
vn 0 -0.99999999999998672 1.6292067961387602E-07
vn 0 -0.99999999999998672 1.6292067961387602E-07
vn 0 -0.99999999999998672 1.6292067961387602E-07
vn 0 -0.99999999999998672 1.6292067961387602E-07
vn 0 -0.99999999999998672 1.6292067961387602E-07
vn 0 -0.99999999999998672 1.6292067961387602E-07
vn 0 -0.99999999999998672 1.6292067961387602E-07
vn 0 -0.99999999999998672 1.6292067961387602E-07
vn -4.523870700268162E-08 -0.99999999999998672 1.6292067961387602E-07
vn -4.523870700268162E-08 -0.99999999999998672 1.6292067961387602E-07
vn -4.523870700268162E-08 -0.99999999999998672 1.6292067961387602E-07
vn -4.523870700268162E-08 -0.99999999999998672 1.6292067961387602E-07
vn 0 -0.99999999999998672 1.6292067961387602E-07
vn 0 -0.99999999999998672 1.6292067961387602E-07
vn 0 -0.99999999999998672 1.6292067961387602E-07
vn 0 -0.99999999999998672 1.6292067961387602E-07
vn 1.1309682967919343E-08 -0.99999999999998672 1.6292067961387602E-07
vn 1.1309682967919343E-08 -0.99999999999998672 1.6292067961387602E-07
vn 1.1309682967919343E-08 -0.99999999999998672 1.6292067961387602E-07
vn 1.1309682967919343E-08 -0.99999999999998672 1.6292067961387602E-07
vn 0 -0.99999999999998672 1.6292067961387602E-07
vn 0 -0.99999999999998672 1.6292067961387602E-07
vn 0 -0.99999999999998672 1.6292067961387602E-07
vn 0 -0.99999999999998672 1.6292067961387602E-07
vn -1.1309670533421468E-08 -0.99999999999998672 1.6292067961387602E-07
vn -1.1309670533421468E-08 -0.99999999999998672 1.6292067961387602E-07
vn -1.1309670533421468E-08 -0.99999999999998672 1.6292067961387602E-07
vn -1.1309670533421468E-08 -0.99999999999998672 1.6292067961387602E-07
vn 4.523868213368587E-08 -0.99999999999998672 1.6292067961387602E-07
vn 4.523868213368587E-08 -0.99999999999998672 1.6292067961387602E-07
vn 4.523868213368587E-08 -0.99999999999998672 1.6292067961387602E-07
vn 4.523868213368587E-08 -0.99999999999998672 1.6292067961387602E-07
vn 0 -0.99999999999998672 1.6292067961387602E-07
vn 0 -0.99999999999998672 1.6292067961387602E-07
vn 0 -0.99999999999998672 1.6292067961387602E-07
vn 0 -0.99999999999998672 1.6292067961387602E-07
vn -2.2619349948627132E-08 -0.99999999999998672 1.6292067961387602E-07
vn -2.2619349948627132E-08 -0.99999999999998672 1.6292067961387602E-07
vn -2.2619349948627132E-08 -0.99999999999998672 1.6292067961387602E-07
vn -2.2619349948627132E-08 -0.99999999999998672 1.6292067961387602E-07
vn -4.523867502825851E-08 -0.99999999999998672 1.6292067961387602E-07
vn -4.523867502825851E-08 -0.99999999999998672 1.6292067961387602E-07
vn -4.523867502825851E-08 -0.99999999999998672 1.6292067961387602E-07
vn -4.523867502825851E-08 -0.99999999999998672 1.6292067961387602E-07
# 144 vertex normals

vt 0.65164959430694584 0.5649616718292236 0
vt 0.6042577624320984 0.06551476567983627 0
vt 0.00669933017343282 0.31303152441978456 0
vt 0.00669933017343282 0.46479034423828128 0
vt 0.46405094861984256 0.00743915233761072 0
vt 0.69896537065505984 0.32709020376205444 0
vt 0.25580620765686036 0.89497935771942144 0
vt 0.13353550434112548 0.99176996946334832 0
vt 0.13353550434112548 0.89497941732406624 0
vt 0.01069360971450805 0.99176996946334832 0
vt 0.01069360971450805 0.89497941732406624 0
vt 0.98534917831420896 0.78536003828048704 0
vt 0.86245173215866096 0.88215070962905888 0
vt 0.98534917831420896 0.88215059041976928 0
vt 0.25580620765686036 0.99176990985870368 0
vt 0.8624517917633056 0.78535991907119744 0
vt 0.3263500928878784 0.6997050046920776 0
vt 0.60425758361816408 0.71230721473693848 0
vt 0.06477497518062592 0.60499739646911624 0
vt 0.69896525144577024 0.45073160529136656 0
vt 0.44999173283576968 0.6997050046920776 0
vt 0.21212022006511688 0.65238916873931888 0
vt 0.76964294910430912 0.31303152441978456 0
vt 0.31229141354560852 0.77038264274597168 0
vt 0.74112677574157712 0.89497935771942144 0
vt 0.74112677574157712 0.99176990985870368 0
vt 0.86353057622909552 0.89497929811477664 0
vt 0.86353057622909552 0.99176985025405888 0
vt 0.61947029829025272 0.99176990985870368 0
vt 0.61947029829025272 0.89497935771942144 0
vt 0.49837416410446168 0.99176990985870368 0
vt 0.49837416410446168 0.89497935771942144 0
vt 0.37733179330825808 0.99176990985870368 0
vt 0.37733179330825808 0.89497935771942144 0
vt 0.56422173976898192 0.65238940715789792 0
vt 0.17208442091941834 0.71230697631835936 0
vt 0.71156740188598632 0.60499739646911624 0
vt 0.0773770809173584 0.45073160529136656 0
vt 0.07737712562084198 0.32709023356437684 0
vt 0.12469283491373062 0.21286018192768096 0
vt 0.12469257414340972 0.56496155261993408 0
vt 0.13245749473571778 0.88215059041976928 0
vt 0.13245749473571778 0.78536003828048704 0
vt 0.00961554050445556 0.88215059041976928 0
vt 0.00961554050445556 0.78535991907119744 0
vt 0.98642790317535408 0.89497929811477664 0
vt 0.98642790317535408 0.99176985025405888 0
vt 0.17208492755889892 0.06551466882228851 0
vt 0.31229197978973388 0.00743908807635307 0
vt 0.3263506591320038 0.078116774559021 0
vt 0.21212080121040344 0.1254323422908783 0
vt 0.4640503525733948 0.77038264274597168 0
vt 0.740048348903656 0.88215076923370368 0
vt 0.7400484085083008 0.78535997867584224 0
vt 0.6183918118476868 0.88215076923370368 0
vt 0.6183918118476868 0.78535997867584224 0
vt 0.4972959756851196 0.88215065002441408 0
vt 0.49729591608047488 0.78535997867584224 0
vt 0.37625348567962648 0.88215053081512448 0
vt 0.37625348567962648 0.78535997867584224 0
vt 0.25472807884216308 0.88215053081512448 0
vt 0.25472807884216308 0.78535997867584224 0
vt 0.44999223947525024 0.07811693102121353 0
vt 0.06477510184049606 0.172824427485466 0
vt 0.76964306831359856 0.46479028463363648 0
vt 0.71156740188598632 0.17282456159591674 0
vt 0.65164977312088016 0.21286021173000336 0
vt 0.56422215700149536 0.125432550907135 0
# 68 texture coords

g Cylinder
s 1
f 1/27/1 2/28/2 4/26/3 3/25/4
f 3/25/5 4/26/6 6/29/7 5/30/8
f 5/30/9 6/29/10 8/31/11 7/32/12
f 7/32/13 8/31/14 10/33/15 9/34/16
f 9/34/17 10/33/18 12/15/19 11/7/20
f 11/7/21 12/15/22 14/8/23 13/9/24
f 13/9/25 14/8/26 16/10/27 15/11/28
f 15/12/29 16/14/30 18/13/31 17/16/32
f 17/16/33 18/13/34 20/53/35 19/54/36
f 19/54/37 20/53/38 22/55/39 21/56/40
f 21/56/41 22/55/42 24/57/43 23/58/44
f 23/58/45 24/57/46 26/59/47 25/60/48
f 25/60/49 26/59/50 28/61/51 27/62/52
f 27/62/53 28/61/54 30/42/55 29/43/56
f 29/43/57 30/42/58 32/44/59 31/45/60
f 31/46/61 32/47/62 2/28/63 1/27/64
f 9/48/65 11/49/66 38/50/67 37/51/68
f 33/41/69 34/38/70 35/39/71 36/40/72 37/51/73 38/50/74 39/63/75 40/68/76 41/67/77 42/6/78 43/20/79 44/1/80 45/35/81 46/21/82 47/17/83 48/22/84
f 19/23/85 21/65/86 43/20/87 42/6/88
f 29/24/89 31/36/90 48/22/91 47/17/92
f 5/3/93 7/64/94 36/40/95 35/39/96
f 15/2/97 17/66/98 41/67/99 40/68/100
f 1/19/101 3/4/102 34/38/103 33/41/104
f 25/18/105 27/52/106 46/21/107 45/35/108
f 11/49/109 13/5/110 39/63/111 38/50/112
f 21/65/113 23/37/114 44/1/115 43/20/116
f 31/36/117 1/19/118 33/41/119 48/22/120
f 7/64/121 9/48/122 37/51/123 36/40/124
f 17/66/125 19/23/126 42/6/127 41/67/128
f 27/52/129 29/24/130 47/17/131 46/21/132
f 3/4/133 5/3/134 35/39/135 34/38/136
f 13/5/137 15/2/138 40/68/139 39/63/140
f 23/37/141 25/18/142 45/35/143 44/1/144
#33 polygons

